<?xml version="1.0" encoding="utf-8" ?>
<svg baseProfile="tiny" height="100%" version="1.2" width="100%" xmlns="http://www.w3.org/2000/svg" xmlns:ev="http://www.w3.org/2001/xml-events" xmlns:xlink="http://www.w3.org/1999/xlink"><defs /><path d="M 129.5,83.0 129.5,85.0 129.0,85.5 129.0,86.0 129.5,86.0 130.0,86.5 131.0,86.5 131.5,87.0 132.5,87.0 133.0,87.5 133.5,87.5 134.5,88.5 134.5,89.0 134.0,89.5 134.0,90.5 133.5,91.0 133.5,91.5 133.0,92.0 133.0,92.5 132.5,93.0 132.5,93.5 131.5,94.5 131.5,95.5 130.5,96.5 130.5,97.0 130.0,97.5 130.0,98.0 129.5,98.5 129.5,99.0 129.0,99.5 129.0,100.0 128.5,100.5 128.5,101.0 128.0,101.5 128.0,102.0 127.5,102.5 127.5,103.0 127.0,103.5 127.0,104.0 126.5,104.5 126.5,105.0 126.0,105.5 126.0,106.0 125.5,106.5 125.5,107.0 125.0,107.5 125.0,108.0 124.5,108.5 124.5,109.0 124.0,109.5 124.0,110.0 123.0,111.0 122.5,110.5 121.5,110.5 121.0,110.0 119.5,110.0 119.0,109.5 116.5,109.5 116.0,109.0 110.0,109.0 109.5,109.5 107.5,109.5 107.0,110.0 106.0,110.0 105.5,110.5 104.5,110.5 104.0,111.0 103.0,111.0 111.5,111.0 112.0,111.5 113.5,111.5 114.0,112.0 115.0,112.0 115.5,112.5 116.5,112.5 117.0,113.0 118.0,113.0 118.5,113.5 119.5,113.5 120.0,114.0 120.5,114.0 121.0,114.5 121.5,114.5 122.0,115.0 122.5,115.0 123.0,115.5 123.5,115.5 124.0,116.0 124.5,116.0 125.5,117.0 126.0,116.5 126.0,116.0 126.5,115.5 126.5,115.0 127.0,114.5 127.0,114.0 127.5,113.5 127.5,113.0 128.0,112.5 128.0,112.0 128.5,111.5 128.5,111.0 129.0,110.5 129.0,110.0 129.5,109.5 129.5,109.0 130.0,108.5 130.0,108.0 130.5,107.5 130.5,107.0 131.0,106.5 131.0,106.0 131.5,105.5 131.5,105.0 132.0,104.5 132.0,104.0 132.5,103.5 132.5,103.0 133.0,102.5 133.0,102.0 134.0,101.0 134.0,100.0 135.0,99.0 135.0,98.5 135.5,98.0 135.5,97.5 136.0,97.0 136.0,96.5 136.5,96.0 136.5,95.5 137.0,95.0 137.0,94.5 137.5,94.0 137.5,93.5 138.0,93.0 138.0,92.5 138.5,92.0 138.5,91.5 139.0,91.0 139.0,90.5 139.5,90.0 139.5,89.5 140.0,89.0 140.0,88.5 140.5,88.0 140.5,87.5 141.0,87.0 141.0,86.5 140.5,86.5 140.0,86.0 139.5,86.0 139.0,85.5 138.5,85.5 138.0,85.0 137.0,85.0 136.5,84.5 136.0,84.5 135.5,84.0 134.5,84.0 134.0,83.5 132.5,83.5 132.0,83.0 Z" fill="black" stroke="none" /><path d="M 47.5,83.0 47.0,83.5 45.5,83.5 45.0,84.0 44.0,84.0 43.5,84.5 43.0,84.5 42.5,85.0 41.5,85.0 41.0,85.5 40.5,85.5 40.0,86.0 39.5,86.0 39.0,86.5 38.5,86.5 38.5,87.0 39.0,87.5 39.0,88.0 39.5,88.5 39.5,89.0 40.0,89.5 40.0,90.0 40.5,90.5 40.5,91.0 41.0,91.5 41.0,92.0 41.5,92.5 41.5,93.0 42.0,93.5 42.0,94.0 42.5,94.5 42.5,95.0 43.5,96.0 43.5,97.0 44.5,98.0 44.5,99.0 45.5,100.0 45.5,101.0 46.5,102.0 46.5,102.5 47.0,103.0 47.0,103.5 47.5,104.0 47.5,104.5 48.0,105.0 48.0,105.5 48.5,106.0 48.5,106.5 49.0,107.0 49.0,107.5 49.5,108.0 49.5,108.5 50.0,109.0 50.0,109.5 50.5,110.0 50.5,110.5 51.0,111.0 51.0,111.5 51.5,112.0 51.5,112.5 52.0,113.0 52.0,113.5 52.5,114.0 52.5,114.5 53.0,115.0 53.0,115.5 53.5,116.0 53.5,116.5 54.0,117.0 55.0,116.0 55.5,116.0 56.0,115.5 56.5,115.5 57.0,115.0 57.5,115.0 58.0,114.5 58.5,114.5 59.0,114.0 59.5,114.0 60.0,113.5 61.0,113.5 61.5,113.0 62.5,113.0 63.0,112.5 64.0,112.5 64.5,112.0 65.5,112.0 66.0,111.5 67.5,111.5 68.0,111.0 76.5,111.0 75.5,111.0 75.0,110.5 74.0,110.5 73.5,110.0 72.5,110.0 72.0,109.5 70.0,109.5 69.5,109.0 63.5,109.0 63.0,109.5 60.5,109.5 60.0,110.0 58.5,110.0 58.0,110.5 57.0,110.5 56.5,111.0 55.5,110.0 55.5,109.5 55.0,109.0 55.0,108.5 54.5,108.0 54.5,107.5 54.0,107.0 54.0,106.5 53.5,106.0 53.5,105.5 53.0,105.0 53.0,104.5 52.5,104.0 52.5,103.5 52.0,103.0 52.0,102.5 51.5,102.0 51.5,101.5 51.0,101.0 51.0,100.5 50.5,100.0 50.5,99.5 50.0,99.0 50.0,98.5 49.5,98.0 49.5,97.5 49.0,97.0 49.0,96.5 48.0,95.5 48.0,94.5 47.0,93.5 47.0,93.0 46.5,92.5 46.5,92.0 46.0,91.5 46.0,91.0 45.5,90.5 45.5,90.0 45.0,89.5 45.0,89.0 44.5,88.5 45.0,88.0 45.5,88.0 46.0,87.5 46.5,87.5 47.0,87.0 48.0,87.0 48.5,86.5 49.5,86.5 50.0,86.0 50.5,86.0 50.5,85.5 50.0,85.0 50.0,83.0 Z" fill="black" stroke="none" /><path d="M 118.0,74.5 118.0,78.0 121.5,78.0 122.0,78.5 124.0,78.5 124.5,79.0 124.0,79.5 124.0,81.0 123.5,81.5 123.5,83.5 123.0,84.0 123.0,85.5 122.5,86.0 122.5,87.5 122.0,88.0 122.0,89.5 121.5,90.0 121.5,91.5 121.0,92.0 121.0,93.5 120.5,94.0 120.5,96.0 120.0,96.5 120.0,98.0 119.5,98.5 119.5,100.0 119.0,100.5 119.0,102.0 118.5,102.5 118.5,103.0 118.0,103.5 110.0,103.5 109.5,104.0 108.0,104.0 107.5,104.5 106.0,104.5 105.5,105.0 104.5,105.0 104.0,105.5 103.5,105.5 103.0,106.0 102.5,106.0 101.5,107.0 101.0,107.0 100.5,107.5 100.0,107.5 99.0,108.5 98.5,108.5 99.0,108.5 99.5,108.0 100.5,108.0 101.0,107.5 102.5,107.5 103.0,107.0 105.0,107.0 105.5,106.5 111.5,106.5 112.0,107.0 115.5,107.0 116.0,107.5 118.0,107.5 118.5,108.0 120.0,108.0 120.5,108.5 121.5,108.5 122.0,109.0 122.0,108.0 122.5,107.5 122.5,106.0 123.0,105.5 123.0,104.0 123.5,103.5 123.5,101.5 124.0,101.0 124.0,100.0 124.5,99.5 124.5,97.5 125.0,97.0 125.0,95.5 125.5,95.0 125.5,93.5 126.0,93.0 126.0,91.5 126.5,91.0 126.5,89.0 127.0,88.5 127.0,87.0 127.5,86.5 127.5,85.0 128.0,84.5 128.0,83.0 128.5,82.5 128.5,81.0 129.0,80.5 129.0,79.0 129.5,78.5 129.5,77.0 130.0,76.5 130.0,76.0 129.5,76.0 129.0,75.5 127.5,75.5 127.0,75.0 124.5,75.0 124.0,74.5 Z" fill="black" stroke="none" /><path d="M 55.5,74.5 55.0,75.0 52.5,75.0 52.0,75.5 50.5,75.5 50.0,76.0 49.5,76.0 49.5,76.5 50.0,77.0 50.0,78.5 50.5,79.0 50.5,80.5 51.0,81.0 51.0,82.5 51.5,83.0 51.5,84.5 52.0,85.0 52.0,86.5 52.5,87.0 52.5,88.5 53.0,89.0 53.0,91.0 53.5,91.5 53.5,93.0 54.0,93.5 54.0,95.0 54.5,95.5 54.5,97.0 55.0,97.5 55.0,99.5 55.5,100.0 55.5,101.5 56.0,102.0 56.0,103.5 56.5,104.0 56.5,105.5 57.0,106.0 57.0,107.5 57.5,108.0 57.5,109.0 58.0,108.5 59.0,108.5 59.5,108.0 61.0,108.0 61.5,107.5 63.5,107.5 64.0,107.0 67.5,107.0 68.0,106.5 73.5,106.5 74.0,107.0 76.5,107.0 77.0,107.5 78.5,107.5 79.0,108.0 80.0,108.0 80.5,108.5 81.0,108.5 80.5,108.5 79.5,107.5 79.0,107.5 78.0,106.5 77.5,106.5 77.0,106.0 76.5,106.0 76.0,105.5 75.5,105.5 75.0,105.0 74.0,105.0 73.5,104.5 72.0,104.5 71.5,104.0 70.0,104.0 69.5,103.5 61.5,103.5 61.0,103.0 61.0,102.5 60.5,102.0 60.5,100.5 60.0,100.0 60.0,98.5 59.5,98.0 59.5,96.5 59.0,96.0 59.0,94.0 58.5,93.5 58.5,92.0 58.0,91.5 58.0,90.0 57.5,89.5 57.5,88.0 57.0,87.5 57.0,86.0 56.5,85.5 56.5,84.0 56.0,83.5 56.0,81.5 55.5,81.0 55.5,79.5 55.0,79.0 55.5,78.5 58.0,78.5 58.5,78.0 61.5,78.0 61.5,74.5 Z" fill="black" stroke="none" /><path d="M 63.0,62.5 63.0,63.0 63.5,63.5 63.0,64.0 63.0,71.5 63.5,72.0 63.5,73.5 63.0,74.0 63.5,74.5 63.0,75.0 63.0,77.5 63.5,78.0 63.5,79.5 63.0,80.0 63.0,95.5 63.5,96.0 63.0,96.5 63.0,97.5 63.5,98.0 63.5,100.0 63.0,100.5 63.0,101.0 73.0,101.0 73.5,101.5 76.5,101.5 77.0,102.0 78.5,102.0 79.0,102.5 80.5,102.5 81.0,103.0 82.0,103.0 82.5,103.5 83.5,103.5 84.0,104.0 84.5,104.0 85.0,104.5 85.5,104.5 86.0,105.0 86.5,105.0 87.5,106.0 88.0,106.0 89.0,107.0 88.5,106.5 88.5,106.0 85.5,103.0 85.0,103.0 83.5,101.5 83.0,101.5 82.0,100.5 81.5,100.5 81.0,100.0 80.5,100.0 80.0,99.5 79.5,99.5 79.0,99.0 78.5,99.0 78.0,98.5 77.0,98.5 76.5,98.0 76.0,98.0 75.5,97.5 74.0,97.5 73.5,97.0 72.0,97.0 71.5,96.5 69.5,96.5 68.5,95.5 68.5,68.0 69.5,67.0 70.0,67.5 73.5,67.5 74.0,68.0 76.0,68.0 76.5,68.5 77.5,68.5 78.0,69.0 79.5,69.0 80.0,69.5 80.5,69.5 81.0,70.0 82.0,70.0 82.5,70.5 83.0,70.5 83.5,71.0 84.0,71.0 85.0,72.0 85.5,72.0 86.5,73.0 87.0,73.0 89.5,75.5 90.0,75.5 92.5,73.0 93.0,73.0 94.0,72.0 94.5,72.0 95.5,71.0 96.0,71.0 96.5,70.5 97.0,70.5 97.5,70.0 98.5,70.0 99.0,69.5 99.5,69.5 100.0,69.0 101.5,69.0 102.0,68.5 103.0,68.5 103.5,68.0 105.5,68.0 106.0,67.5 109.5,67.5 110.0,67.0 111.0,68.0 111.0,96.0 110.5,96.5 108.0,96.5 107.5,97.0 106.0,97.0 105.5,97.5 104.0,97.5 103.5,98.0 103.0,98.0 102.5,98.5 101.5,98.5 101.0,99.0 100.5,99.0 100.0,99.5 99.5,99.5 99.0,100.0 98.5,100.0 98.0,100.5 97.5,100.5 96.5,101.5 96.0,101.5 94.5,103.0 94.0,103.0 91.0,106.0 91.0,106.5 90.5,107.0 91.5,106.0 92.0,106.0 93.0,105.0 93.5,105.0 94.0,104.5 94.5,104.5 95.0,104.0 96.0,104.0 96.5,103.5 97.0,103.5 97.5,103.0 98.5,103.0 99.0,102.5 100.5,102.5 101.0,102.0 102.5,102.0 103.0,101.5 106.0,101.5 106.5,101.0 116.5,101.0 116.5,100.5 116.0,100.0 116.0,97.5 116.5,97.0 116.5,80.0 116.0,79.5 116.5,79.0 116.0,78.5 116.0,77.5 116.5,77.0 116.5,75.0 116.0,74.5 116.5,74.0 116.0,73.5 116.5,73.0 116.0,72.5 116.0,72.0 116.5,71.5 116.5,64.0 116.0,63.5 116.5,63.0 116.5,62.5 110.5,62.5 110.0,63.0 107.0,63.0 106.5,63.5 105.0,63.5 104.5,64.0 103.5,64.0 103.0,64.5 102.0,64.5 101.5,65.0 100.5,65.0 100.0,65.5 99.5,65.5 98.5,66.5 98.0,66.5 97.5,67.0 97.0,67.0 95.5,68.5 95.0,68.5 95.0,69.0 94.5,69.5 94.0,69.5 94.0,70.0 92.0,72.0 92.0,72.5 91.0,73.5 91.0,74.0 90.5,74.5 90.5,75.0 90.0,75.5 89.5,75.5 89.0,75.0 89.0,74.5 88.5,74.0 88.5,73.5 87.5,72.5 87.5,72.0 85.5,70.0 85.5,69.5 85.0,69.5 84.5,69.0 84.5,68.5 84.0,68.5 82.5,67.0 82.0,67.0 81.5,66.5 81.0,66.5 80.0,65.5 79.5,65.5 79.0,65.0 78.0,65.0 77.5,64.5 76.5,64.5 76.0,64.0 75.0,64.0 74.5,63.5 73.0,63.5 72.5,63.0 69.5,63.0 69.0,62.5 Z" fill="black" stroke="none" /></svg>